<svg width="20" height="20" viewBox="0 0 20 20" fill="none" xmlns="http://www.w3.org/2000/svg">
<path d="M5.41683 15.4166C5.20362 15.4166 4.9904 15.3353 4.82764 15.1725C4.50211 14.847 4.50211 14.3196 4.82764 13.9941L13.9943 4.82746C14.3198 4.50193 14.8472 4.50193 15.1727 4.82746C15.4982 5.15298 15.4982 5.68033 15.1727 6.00584L6.00603 15.1725C5.84327 15.3353 5.63005 15.4166 5.41683 15.4166Z" fill="#FF6600"/>
<path d="M14.5835 15.4166C14.3703 15.4166 14.1571 15.3353 13.9943 15.1725L4.82764 6.00584C4.50211 5.68031 4.50211 5.15297 4.82764 4.82745C5.15316 4.50194 5.68051 4.50193 6.00603 4.82745L15.1727 13.9941C15.4982 14.3196 15.4982 14.847 15.1727 15.1725C15.0099 15.3353 14.7967 15.4166 14.5835 15.4166Z" fill="#FF6600"/>
</svg>
