<svg width="44" height="44" viewBox="0 0 44 44" fill="none" xmlns="http://www.w3.org/2000/svg">
<rect width="44" height="44" rx="22" fill="#FF6600"/>
<path d="M22.7072 31.1923C22.5263 31.3732 22.2763 31.485 22.0001 31.485C21.4476 31.485 21.0002 31.0376 21.0002 30.4852V13.5146C21.0002 12.9622 21.4477 12.5147 22.0001 12.5147C22.5525 12.5147 23 12.9622 23 13.5146L23 30.4852C23 30.7614 22.8881 31.0113 22.7072 31.1923Z" fill="white"/>
<path d="M31.1925 22.707C31.0115 22.8879 30.7616 22.9998 30.4854 22.9998L13.5148 22.9998C12.9624 22.9998 12.5149 22.5523 12.5149 21.9999C12.5149 21.4474 12.9624 21 13.5148 21L30.4854 21C31.0378 21 31.4853 21.4474 31.4853 21.9999C31.4853 22.2761 31.3734 22.5261 31.1925 22.707Z" fill="white"/>
</svg>
