<svg width="24" height="24" viewBox="0 0 24 24" fill="none" xmlns="http://www.w3.org/2000/svg">
<path d="M12.7071 21.1921C12.5261 21.3731 12.2762 21.4849 12 21.4849C11.4475 21.4849 11.0001 21.0375 11.0001 20.485V3.51447C11.0001 2.96204 11.4475 2.51458 12 2.51458C12.5524 2.51459 12.9999 2.96205 12.9999 3.51448L12.9999 20.485C12.9999 20.7613 12.888 21.0112 12.7071 21.1921Z" fill="white"/>
<path d="M21.1923 12.7069C21.0114 12.8878 20.7615 12.9996 20.4852 12.9996L3.51468 12.9996C2.96224 12.9996 2.51478 12.5522 2.51479 11.9998C2.51479 11.4473 2.96225 10.9999 3.51468 10.9999L20.4852 10.9999C21.0377 10.9999 21.4851 11.4473 21.4851 11.9998C21.4851 12.276 21.3733 12.5259 21.1923 12.7069Z" fill="white"/>
</svg>
